<svg width="24" height="24" viewBox="0 0 24 24" fill="none" xmlns="http://www.w3.org/2000/svg">
<path d="M5.25 9.75C5.66421 9.75 6 10.0858 6 10.5V12C6 15.3137 8.68629 18 12 18C15.3137 18 18 15.3137 18 12V10.5C18 10.0858 18.3358 9.75 18.75 9.75C19.1642 9.75 19.5 10.0858 19.5 10.5V12C19.5 15.8517 16.5824 19.0773 12.75 19.4625V22.5H17.25C17.6642 22.5 18 22.8358 18 23.25C18 23.6642 17.6642 24 17.25 24H6.75C6.33579 24 6 23.6642 6 23.25C6 22.8358 6.33579 22.5 6.75 22.5H11.25V19.4625C7.41757 19.0773 4.49995 15.8517 4.5 12V10.5C4.5 10.0858 4.83579 9.75 5.25 9.75Z" fill="black"/>
<path fill-rule="evenodd" clip-rule="evenodd" d="M7.5 4.5C7.5 2.01472 9.51472 0 12 0C14.4853 0 16.5 2.01472 16.5 4.5V12C16.5 14.4853 14.4853 16.5 12 16.5C9.51472 16.5 7.5 14.4853 7.5 12V4.5ZM12 15C13.6569 15 15 13.6569 15 12V4.5C15 2.84315 13.6569 1.5 12 1.5C10.3431 1.5 9 2.84315 9 4.5V12C9 13.6569 10.3431 15 12 15Z" fill="black"/>
</svg>
