<svg width="24" height="24" viewBox="0 0 24 24" fill="none" xmlns="http://www.w3.org/2000/svg">
<path fill-rule="evenodd" clip-rule="evenodd" d="M8.11471 17.5573L8.43038 17.2417C8.63958 17.0325 8.63958 16.6933 8.43038 16.4841L4.68359 12.7589H21.4643C21.7601 12.7589 22 12.519 22 12.2232V11.7768C22 11.4809 21.7601 11.241 21.4643 11.241H4.68359L8.43038 7.51586C8.63958 7.30667 8.63958 6.96747 8.43038 6.75823L8.11471 6.4426C7.90551 6.23341 7.56632 6.23341 7.35712 6.4426L2.1569 11.6212C1.9477 11.8304 1.9477 12.1696 2.1569 12.3788L7.35712 17.5574C7.56632 17.7666 7.90551 17.7666 8.11471 17.5573Z" fill="#232D37"/>
</svg>
