<svg width="22" height="24" viewBox="0 0 22 24" fill="none" xmlns="http://www.w3.org/2000/svg">
<path fill-rule="evenodd" clip-rule="evenodd" d="M20.5115 8.3685C19.991 7.659 19.265 6.828 18.4685 6.0315C17.672 5.235 16.841 4.509 16.1315 3.9885C14.9225 3.102 14.336 3 14 3H5.375C4.3415 3 3.5 3.8415 3.5 4.875V22.125C3.5 23.1585 4.3415 24 5.375 24H19.625C20.6585 24 21.5 23.1585 21.5 22.125V10.5C21.5 10.164 21.398 9.5775 20.5115 8.3685ZM17.4065 7.0935C18.1265 7.8135 18.6905 8.4615 19.1075 9H15.4985V5.3925C16.037 5.8095 16.6865 6.3735 17.405 7.0935H17.4065ZM19.625 22.5C19.829 22.5 20 22.329 20 22.125V10.5H14.75C14.3358 10.5 14 10.1642 14 9.75V4.5H5.375C5.171 4.5 5 4.6725 5 4.875V22.125C5.00243 22.3311 5.16891 22.4976 5.375 22.5H19.625Z" fill="white"/>
<path d="M13.1315 0.9885C11.9225 0.102 11.336 0 11 0H2.375C1.3415 0 0.5 0.8415 0.5 1.875V19.125C0.5 20.031 1.145 20.7885 2 20.9625V1.875C2 1.6725 2.1725 1.5 2.375 1.5H13.7855C13.5716 1.32374 13.353 1.15318 13.13 0.9885H13.1315Z" fill="white"/>
</svg>
