<svg width="51" height="50" viewBox="0 0 51 50" fill="none" xmlns="http://www.w3.org/2000/svg">
<g opacity="0.1">
<path fill-rule="evenodd" clip-rule="evenodd" d="M15.2521 0.000915527C12.4443 0.000915527 10.1681 3.15893 10.1681 7.05454C10.1681 10.9502 12.4443 14.1082 15.2521 14.1082C18.06 14.1082 20.3362 10.9502 20.3362 7.05454C20.3362 3.15893 18.06 0.000915527 15.2521 0.000915527ZM35.0799 13.1559L50.332 41.3704C50.662 41.9809 50.8404 42.7234 50.8404 43.4865V46.7312C50.8267 48.1841 49.9811 49.3573 48.9339 49.3763H1.90652C0.8593 49.3573 0.0136908 48.1841 0 46.7312V43.5218C0.0017485 42.7425 0.189463 41.986 0.533825 41.3704L11.3374 22.0082C11.6993 21.3825 12.2463 21.0184 12.8245 21.0184C13.4027 21.0184 13.9497 21.3825 14.3116 22.0082L19.8786 31.3895C20.1198 31.8067 20.4845 32.0494 20.87 32.0494C21.2555 32.0494 21.6202 31.8067 21.8614 31.3895L32.0295 13.1559C32.3955 12.5028 32.9584 12.1207 33.5547 12.1207C34.151 12.1207 34.7139 12.5028 35.0799 13.1559Z" fill="black"/>
</g>
</svg>
