<svg width="24" height="24" viewBox="0 0 24 24" fill="none" xmlns="http://www.w3.org/2000/svg">
<path fill-rule="evenodd" clip-rule="evenodd" d="M3.87454 4.50183H9.02953C9.28728 4.50183 9.49817 4.71272 9.49817 4.97047V5.28289C9.49817 5.54064 9.28728 5.75153 9.02953 5.75153H3.87454C3.53088 5.75153 3.24969 6.03271 3.24969 6.37637V17.6236C3.24969 17.9673 3.53088 18.2485 3.87454 18.2485H9.02953C9.28728 18.2485 9.49817 18.4594 9.49817 18.7171V19.0295C9.49817 19.2873 9.28728 19.4982 9.02953 19.4982H3.87454C2.83964 19.4982 2 18.6585 2 17.6236V6.37637C2 5.34147 2.83964 4.50183 3.87454 4.50183ZM14.7703 5.26336L14.493 5.54064C14.3095 5.72419 14.3095 6.02099 14.493 6.20454L19.648 11.3361H8.71711C8.45936 11.3361 8.24847 11.547 8.24847 11.8047V12.1953C8.24847 12.453 8.45936 12.6639 8.71711 12.6639H19.648L14.4969 17.7955C14.3134 17.979 14.3134 18.2758 14.4969 18.4594L14.7742 18.7366C14.9578 18.9202 15.2546 18.9202 15.4381 18.7366L21.8623 12.332C22.0459 12.1484 22.0459 11.8516 21.8623 11.6681L15.4342 5.26336C15.2507 5.07981 14.9539 5.07981 14.7703 5.26336Z" fill="#FF0000"/>
</svg>
