<svg width="24" height="24" viewBox="0 0 24 24" fill="none" xmlns="http://www.w3.org/2000/svg">
<path fill-rule="evenodd" clip-rule="evenodd" d="M12 2C6.47715 2 2 6.47715 2 12C2 14.6522 3.05357 17.1957 4.92893 19.0711C6.8043 20.9464 9.34784 22 12 22C17.5228 22 22 17.5228 22 12C22 6.47715 17.5228 2 12 2ZM8 8H6V9.5H8V11.5H9.5V9.5H11.5V8H9.5V6H8V8ZM6.34 17.66C7.79 19.1 9.79 20 12 20C16.4183 20 20 16.4183 20 12C20.0001 9.87793 19.1586 7.84245 17.66 6.34L6.34 17.66ZM17 16H12V14.5H17V16Z" fill="black"/>
</svg>
