<svg width="24" height="20" viewBox="0 0 24 20" fill="none" xmlns="http://www.w3.org/2000/svg">
<path fill-rule="evenodd" clip-rule="evenodd" d="M17 17V19H21C21.55 19 22.021 18.8043 22.413 18.413C22.8043 18.021 23 17.55 23 17V3C23 2.45 22.8043 1.979 22.413 1.587C22.021 1.19567 21.55 1 21 1H12C11.45 1 10.9793 1.19167 10.588 1.575C10.196 1.95833 10 2.41667 10 2.95L12 4.4V3H21V17H17ZM19 7H17V5H19V7ZM19 11H17V9H19V11ZM17 15H19V13H17V15ZM3 19C2.45 19 1.97933 18.8043 1.588 18.413C1.196 18.021 1 17.55 1 17V10.025C1 9.69167 1.075 9.38333 1.225 9.1C1.375 8.81667 1.58333 8.58333 1.85 8.4L6.85 4.825C7.2 4.575 7.58333 4.45 8 4.45C8.41667 4.45 8.8 4.575 9.15 4.825L14.15 8.4C14.4167 8.58333 14.625 8.81667 14.775 9.1C14.925 9.38333 15 9.69167 15 10.025V17C15 17.55 14.8043 18.021 14.413 18.413C14.021 18.8043 13.55 19 13 19H3ZM6 17H3V10L8 6.5L13 10V17H10V12H6V17Z" fill="white"/>
<path d="M17 19H16.75V19.25H17V19ZM17 17V16.75H16.75V17H17ZM22.413 18.413L22.5896 18.5899L22.5899 18.5896L22.413 18.413ZM22.413 1.587L22.5899 1.41037L22.5896 1.41007L22.413 1.587ZM10.588 1.575L10.7628 1.75374L10.7629 1.75359L10.588 1.575ZM10 2.95H9.75V3.07754L9.85326 3.1524L10 2.95ZM12 4.4L11.8533 4.6024L12.25 4.89004V4.4H12ZM12 3V2.75H11.75V3H12ZM21 3H21.25V2.75H21V3ZM21 17V17.25H21.25V17H21ZM17 7H16.75V7.25H17V7ZM19 7V7.25H19.25V7H19ZM17 5V4.75H16.75V5H17ZM19 5H19.25V4.75H19V5ZM17 11H16.75V11.25H17V11ZM19 11V11.25H19.25V11H19ZM17 9V8.75H16.75V9H17ZM19 9H19.25V8.75H19V9ZM19 15V15.25H19.25V15H19ZM17 15H16.75V15.25H17V15ZM19 13H19.25V12.75H19V13ZM17 13V12.75H16.75V13H17ZM1.588 18.413L1.41122 18.5898H1.41122L1.588 18.413ZM1.225 9.1L1.44595 9.21697H1.44595L1.225 9.1ZM1.85 8.4L1.99166 8.60605L1.99541 8.60336L1.85 8.4ZM6.85 4.825L6.70469 4.62157L6.70459 4.62164L6.85 4.825ZM9.15 4.825L9.29541 4.62164L9.29531 4.62157L9.15 4.825ZM14.15 8.4L14.0046 8.6034L14.0084 8.60601L14.15 8.4ZM14.775 9.1L14.5541 9.21697L14.775 9.1ZM14.413 18.413L14.5896 18.5899L14.5899 18.5896L14.413 18.413ZM3 17H2.75V17.25H3V17ZM6 17V17.25H6.25V17H6ZM3 10L2.85663 9.79519L2.75 9.86984V10H3ZM8 6.5L8.14337 6.29519L8 6.19484L7.85663 6.29519L8 6.5ZM13 10H13.25V9.86984L13.1434 9.79519L13 10ZM13 17V17.25H13.25V17H13ZM10 17H9.75V17.25H10V17ZM10 12H10.25V11.75H10V12ZM6 12V11.75H5.75V12H6ZM17.25 19V17H16.75V19H17.25ZM21 18.75H17V19.25H21V18.75ZM22.2364 18.2361C21.8909 18.581 21.4832 18.75 21 18.75V19.25C21.6168 19.25 22.1511 19.0277 22.5896 18.5899L22.2364 18.2361ZM22.75 17C22.75 17.4832 22.581 17.8909 22.2361 18.2364L22.5899 18.5896C23.0277 18.1511 23.25 17.6168 23.25 17H22.75ZM22.75 3V17H23.25V3H22.75ZM22.2361 1.76363C22.581 2.10913 22.75 2.51676 22.75 3H23.25C23.25 2.38324 23.0277 1.84887 22.5899 1.41037L22.2361 1.76363ZM21 1.25C21.4832 1.25 21.8909 1.41901 22.2364 1.76393L22.5896 1.41007C22.1511 0.972321 21.6168 0.75 21 0.75V1.25ZM12 1.25H21V0.75H12V1.25ZM10.7629 1.75359C11.1073 1.41624 11.5151 1.25 12 1.25V0.75C11.3849 0.75 10.8513 0.967096 10.4131 1.39641L10.7629 1.75359ZM10.25 2.95C10.25 2.48603 10.4174 2.09152 10.7628 1.75374L10.4132 1.39626C9.97463 1.82515 9.75 2.34731 9.75 2.95H10.25ZM12.1467 4.1976L10.1467 2.7476L9.85326 3.1524L11.8533 4.6024L12.1467 4.1976ZM11.75 3V4.4H12.25V3H11.75ZM21 2.75H12V3.25H21V2.75ZM21.25 17V3H20.75V17H21.25ZM17 17.25H21V16.75H17V17.25ZM17 7.25H19V6.75H17V7.25ZM16.75 5V7H17.25V5H16.75ZM19 4.75H17V5.25H19V4.75ZM19.25 7V5H18.75V7H19.25ZM17 11.25H19V10.75H17V11.25ZM16.75 9V11H17.25V9H16.75ZM19 8.75H17V9.25H19V8.75ZM19.25 11V9H18.75V11H19.25ZM19 14.75H17V15.25H19V14.75ZM18.75 13V15H19.25V13H18.75ZM17 13.25H19V12.75H17V13.25ZM17.25 15V13H16.75V15H17.25ZM1.41122 18.5898C1.84911 19.0277 2.38323 19.25 3 19.25V18.75C2.51677 18.75 2.10955 18.581 1.76478 18.2362L1.41122 18.5898ZM0.75 17C0.75 17.6169 0.972758 18.1513 1.41122 18.5898L1.76478 18.2362C1.41924 17.8907 1.25 17.4831 1.25 17H0.75ZM0.75 10.025V17H1.25V10.025H0.75ZM1.00405 8.98303C0.834204 9.30385 0.75 9.65257 0.75 10.025H1.25C1.25 9.73076 1.3158 9.46281 1.44595 9.21697L1.00405 8.98303ZM1.70837 8.19399C1.40879 8.39995 1.17311 8.6637 1.00405 8.98303L1.44595 9.21697C1.57689 8.96963 1.75787 8.76672 1.99163 8.60601L1.70837 8.19399ZM6.70459 4.62164L1.70459 8.19664L1.99541 8.60336L6.99541 5.02836L6.70459 4.62164ZM8 4.2C7.52946 4.2 7.09563 4.34232 6.70469 4.62157L6.99531 5.02843C7.30437 4.80768 7.63721 4.7 8 4.7V4.2ZM9.29531 4.62157C8.90437 4.34232 8.47054 4.2 8 4.2V4.7C8.36279 4.7 8.69563 4.80768 9.00469 5.02843L9.29531 4.62157ZM14.2954 8.19664L9.29541 4.62164L9.00459 5.02836L14.0046 8.60336L14.2954 8.19664ZM14.9959 8.98303C14.8269 8.6637 14.5912 8.39995 14.2916 8.19399L14.0084 8.60601C14.2421 8.76672 14.4231 8.96963 14.5541 9.21697L14.9959 8.98303ZM15.25 10.025C15.25 9.65257 15.1658 9.30385 14.9959 8.98303L14.5541 9.21697C14.6842 9.46281 14.75 9.73077 14.75 10.025H15.25ZM15.25 17V10.025H14.75V17H15.25ZM14.5899 18.5896C15.0277 18.1511 15.25 17.6168 15.25 17H14.75C14.75 17.4832 14.581 17.8909 14.2361 18.2364L14.5899 18.5896ZM13 19.25C13.6168 19.25 14.1511 19.0277 14.5896 18.5899L14.2364 18.2361C13.8909 18.581 13.4832 18.75 13 18.75V19.25ZM3 19.25H13V18.75H3V19.25ZM3 17.25H6V16.75H3V17.25ZM2.75 10V17H3.25V10H2.75ZM7.85663 6.29519L2.85663 9.79519L3.14337 10.2048L8.14337 6.70481L7.85663 6.29519ZM13.1434 9.79519L8.14337 6.29519L7.85663 6.70481L12.8566 10.2048L13.1434 9.79519ZM13.25 17V10H12.75V17H13.25ZM10 17.25H13V16.75H10V17.25ZM9.75 12V17H10.25V12H9.75ZM6 12.25H10V11.75H6V12.25ZM6.25 17V12H5.75V17H6.25Z" fill="#CED1D4"/>
</svg>
