<svg width="20" height="19" viewBox="0 0 20 19" fill="none" xmlns="http://www.w3.org/2000/svg">
<path fill-rule="evenodd" clip-rule="evenodd" d="M17 0C18.654 0 20 1.346 20 3V5.83C20 6.884 19.618 7.841 19 8.576V17C19 18.103 18.103 19 17 19H3C1.897 19 1 18.103 1 17V8.577C0.382 7.841 0 6.884 0 5.831V3C0 1.346 1.346 0 3 0H17ZM18 5.831V3C18 2.449 17.552 2 17 2H14V6C14 7.103 14.897 8 16 8L16.109 7.998C17.151 7.943 18 6.971 18 5.831ZM8 2H12V6C12 7.103 11.103 8 10 8C8.897 8 8 7.103 8 6V2ZM3 2C2.448 2 2 2.449 2 3V5.831C2 6.971 2.849 7.943 3.891 7.997L4 8C5.103 8 6 7.103 6 6V2H3ZM8 17V14H12V17H8ZM14 14V17H17V9.869C16.746 9.936 16.484 9.98 16.213 9.994C14.9915 10.0603 13.8071 9.56229 13 8.643C12.267 9.475 11.193 10 10 10C8.807 10 7.733 9.475 7 8.643C6.1929 9.56229 5.00852 10.0603 3.787 9.994C3.517 9.98 3.254 9.936 3 9.869V17H6V14C6 12.897 6.897 12 8 12H12C13.103 12 14 12.897 14 14Z" fill="white"/>
</svg>
