<svg width="18" height="18" viewBox="0 0 18 18" fill="none" xmlns="http://www.w3.org/2000/svg">
<path fill-rule="evenodd" clip-rule="evenodd" d="M0 3.25C0 1.45507 1.45507 0 3.25 0H14.75C16.5449 0 18 1.45507 18 3.25V14.75C18 16.5449 16.5449 18 14.75 18H3.25C1.45507 18 0 16.5449 0 14.75V3.25ZM3.25 1.5C2.2835 1.5 1.5 2.2835 1.5 3.25V3.5H16.5V3.25C16.5 2.2835 15.7165 1.5 14.75 1.5H3.25ZM3.25 16.5C2.284 16.5 1.5 15.716 1.5 14.75V5H16.5V14.75C16.5 15.7165 15.7165 16.5 14.75 16.5H3.25ZM3.85 6.5H7.15C7.62 6.5 8 6.88 8 7.35V14.15C8 14.62 7.62 15 7.15 15H3.85C3.38056 15 3 14.6194 3 14.15V7.35C3 6.88 3.38 6.5 3.85 6.5ZM6.5 13.5H4.5V8H6.5V13.5ZM9 7.25C9 6.83579 9.33579 6.5 9.75 6.5H14.25C14.6642 6.5 15 6.83579 15 7.25C15 7.66421 14.6642 8 14.25 8H9.75C9.33579 8 9 7.66421 9 7.25ZM9 10.25C9 9.83579 9.33579 9.5 9.75 9.5H13.25C13.6642 9.5 14 9.83579 14 10.25C14 10.6642 13.6642 11 13.25 11H9.75C9.33579 11 9 10.6642 9 10.25Z" fill="white"/>
</svg>
