<svg width="24" height="25" viewBox="0 0 24 25" fill="none" xmlns="http://www.w3.org/2000/svg">
<path fill-rule="evenodd" clip-rule="evenodd" d="M15.5 14C14.3789 14 13.8398 14.625 12 14.625C10.1602 14.625 9.625 14 8.5 14C5.60156 14 3.25 16.3516 3.25 19.25V20.875C3.25 21.9102 4.08984 22.75 5.125 22.75H18.875C19.9102 22.75 20.75 21.9102 20.75 20.875V19.25C20.75 16.3516 18.3984 14 15.5 14ZM19.5 20.875C19.5 21.2188 19.2188 21.5 18.875 21.5H5.125C4.78125 21.5 4.5 21.2188 4.5 20.875V19.25C4.5 17.043 6.29297 15.25 8.5 15.25C9.26562 15.25 10.0273 15.875 12 15.875C13.9688 15.875 14.7344 15.25 15.5 15.25C17.707 15.25 19.5 17.043 19.5 19.25V20.875ZM12 12.75C14.7617 12.75 17 10.5117 17 7.75C17 4.98828 14.7617 2.75 12 2.75C9.23828 2.75 7 4.98828 7 7.75C7 10.5117 9.23828 12.75 12 12.75ZM12 4C14.0664 4 15.75 5.68359 15.75 7.75C15.75 9.81641 14.0664 11.5 12 11.5C9.93359 11.5 8.25 9.81641 8.25 7.75C8.25 5.68359 9.93359 4 12 4Z" fill="white"/>
</svg>
