<svg width="16" height="16" viewBox="0 0 16 16" fill="none" xmlns="http://www.w3.org/2000/svg">
<path fill-rule="evenodd" clip-rule="evenodd" d="M8 8.66667C8.73638 8.66667 9.33334 8.06971 9.33334 7.33333C9.33334 6.59695 8.73638 6 8 6C7.97917 6 7.96083 6.005 7.94062 6.00604C8.0718 6.36727 7.98196 6.77179 7.71021 7.04354C7.43846 7.31529 7.03394 7.40513 6.67271 7.27396C6.67271 7.29479 6.66666 7.31312 6.66666 7.33333C6.66666 8.06971 7.26362 8.66667 8 8.66667V8.66667ZM13.9275 7.69583C12.7977 5.49145 10.561 3.99999 8 3.99999C5.43895 3.99999 3.20166 5.4925 2.07249 7.69604C1.97584 7.88723 1.97584 8.11298 2.07249 8.30417C3.20228 10.5085 5.43895 12 8 12C10.561 12 12.7983 10.5075 13.9275 8.30396C14.0242 8.11277 14.0242 7.88702 13.9275 7.69583ZM8 4.66666C9.47276 4.66666 10.6667 5.86057 10.6667 7.33333C10.6667 8.80609 9.47276 10 8 10C6.52724 10 5.33333 8.80609 5.33333 7.33333C5.33494 5.86124 6.5279 4.66827 8 4.66666ZM8 11.3333C5.76333 11.3333 3.71958 10.056 2.66666 8C3.25883 6.83748 4.20584 5.89375 5.37041 5.30562C4.93562 5.86854 4.66666 6.56604 4.66666 7.33333C4.66666 9.17428 6.15905 10.6667 8 10.6667C9.84095 10.6667 11.3333 9.17428 11.3333 7.33333C11.3333 6.56604 11.0644 5.86854 10.6296 5.30562C11.7942 5.89375 12.7412 6.83748 13.3333 8C12.2806 10.056 10.2367 11.3333 8 11.3333Z" fill="#232D37"/>
</svg>
